<svg width="54" height="54" viewBox="0 0 54 54" fill="none" xmlns="http://www.w3.org/2000/svg">
<g clip-path="url(#clip0_203_602)">
<path d="M0 19.5429C0 12.7022 0 9.2819 1.33128 6.66912C2.5023 4.37085 4.37085 2.5023 6.66912 1.33128C9.2819 0 12.7022 0 19.5429 0H34.4571C41.2978 0 44.7181 0 47.3309 1.33128C49.6292 2.5023 51.4977 4.37085 52.6687 6.66912C54 9.2819 54 12.7022 54 19.5429V34.4571C54 41.2978 54 44.7181 52.6687 47.3309C51.4977 49.6292 49.6292 51.4977 47.3309 52.6687C44.7181 54 41.2978 54 34.4571 54H19.5429C12.7022 54 9.2819 54 6.66912 52.6687C4.37085 51.4977 2.5023 49.6292 1.33128 47.3309C0 44.7181 0 41.2978 0 34.4571V19.5429Z" fill="#330000"/>
<path d="M26.1677 33.9356H17.7997L16.0971 39.3601C16.0499 39.5617 15.8643 39.7044 15.6624 39.6945H11.4241C11.1824 39.6945 11.0979 39.5583 11.1705 39.2858L18.4155 17.8852C18.488 17.6623 18.5605 17.4084 18.6329 17.1235C18.7277 16.6278 18.7762 16.124 18.7778 15.6189C18.757 15.4696 18.8882 15.3378 19.0314 15.3587H24.7911C24.9598 15.3587 25.0564 15.4207 25.0809 15.5445L33.304 39.3229C33.3764 39.5708 33.304 39.6947 33.0866 39.6945H28.3773C28.2122 39.7133 28.0544 39.6 28.0151 39.4344L26.1677 33.9356ZM19.1038 29.2543H24.8273C23.887 26.0409 22.8257 22.8698 21.9656 19.6314C21.0376 22.8753 20.0251 26.1061 19.1038 29.2543Z" fill="#FF9A00"/>
<path d="M38.1939 19.2969C37.8245 19.3122 37.456 19.2472 37.1127 19.1064C36.7694 18.9655 36.4589 18.7519 36.2016 18.4796C35.945 18.1954 35.7456 17.862 35.6151 17.4986C35.4845 17.1351 35.4253 16.7488 35.4408 16.3618C35.4276 15.9786 35.4934 15.5969 35.6338 15.2416C35.7743 14.8863 35.9862 14.5653 36.2558 14.2997C36.5228 14.0369 36.838 13.831 37.1831 13.6939C37.5282 13.5567 37.8964 13.4912 38.2663 13.501C39.1358 13.501 39.818 13.7672 40.3131 14.2997C40.563 14.5765 40.7572 14.9011 40.8846 15.2549C41.012 15.6087 41.0701 15.9849 41.0556 16.3618C41.0708 16.7503 41.0097 17.138 40.8759 17.5018C40.7421 17.8656 40.5384 18.1981 40.2768 18.4796C40.0035 18.7559 39.6773 18.9712 39.3188 19.1119C38.9603 19.2526 38.5773 19.3156 38.1939 19.2969ZM35.6943 39.3228V21.5633C35.6943 21.3404 35.7906 21.2289 35.9841 21.2289H40.4399C40.6329 21.2289 40.7295 21.3404 40.7297 21.5633V39.3228C40.7297 39.5707 40.6331 39.6946 40.4399 39.6944H36.0204C35.8031 39.6944 35.6944 39.5705 35.6943 39.3228Z" fill="#FF9A00"/>
</g>
<defs>
<clipPath id="clip0_203_602">
<rect width="54" height="54" fill="white"/>
</clipPath>
</defs>
</svg>
