<svg width="48" height="54" viewBox="0 0 48 54" fill="none" xmlns="http://www.w3.org/2000/svg">
<path fill-rule="evenodd" clip-rule="evenodd" d="M4.4974 48.6017L0.164062 0H47.7805L43.4425 48.5938L23.9435 54L4.4974 48.6017Z" fill="#0071BC"/>
<path fill-rule="evenodd" clip-rule="evenodd" d="M24.0123 49.8651L39.7489 45.5359L43.436 4.04749H24.0123V49.8651Z" fill="#29ABE2"/>
<path fill-rule="evenodd" clip-rule="evenodd" d="M10.083 21.9036L10.605 27.8556L24.0123 21.9036V15.9419L10.083 21.9036Z" fill="#B3B3B3"/>
<path fill-rule="evenodd" clip-rule="evenodd" d="M38.8612 9.578L24.0123 15.9418V21.9035L38.3492 15.5301L38.8612 9.578Z" fill="#E6E6E6"/>
<path fill-rule="evenodd" clip-rule="evenodd" d="M24.0123 37.477L23.9662 37.4839L17.3172 35.6983L16.8828 30.9507H10.8987L11.7338 40.3037L23.9649 43.6903L24.0123 43.6791V37.477Z" fill="#E6E6E6"/>
<path fill-rule="evenodd" clip-rule="evenodd" d="M24.0123 21.9036V27.8556H31.2919L30.6302 35.6375L24.0123 37.4821V43.6838L36.2028 40.2972L37.8081 21.9036H24.0123Z" fill="white"/>
<path fill-rule="evenodd" clip-rule="evenodd" d="M24.0123 21.9036H10.083L10.605 27.8556H24.0123V21.9036Z" fill="#E6E6E6"/>
<path fill-rule="evenodd" clip-rule="evenodd" d="M24.0123 15.5301V9.578H23.9518H9.02478L9.55297 15.5301H24.0123Z" fill="#E6E6E6"/>
<path fill-rule="evenodd" clip-rule="evenodd" d="M24.0123 9.578V15.4554V15.5301H38.3492L38.8612 9.578H24.0123Z" fill="white"/>
</svg>
