<svg width="54" height="54" viewBox="0 0 54 54" fill="none" xmlns="http://www.w3.org/2000/svg">
<path d="M18.0703 54C23.0383 54 27.0703 49.968 27.0703 45V36H18.0703C13.1023 36 9.07031 40.032 9.07031 45C9.07031 49.968 13.1023 54 18.0703 54Z" fill="#0ACF83"/>
<path d="M9.07031 27C9.07031 22.032 13.1023 18 18.0703 18H27.0703V36H18.0703C13.1023 36 9.07031 31.968 9.07031 27Z" fill="#A259FF"/>
<path d="M9.07031 9C9.07031 4.032 13.1023 0 18.0703 0H27.0703V18H18.0703C13.1023 18 9.07031 13.968 9.07031 9Z" fill="#F24E1E"/>
<path d="M27.0703 0H36.0703C41.0383 0 45.0703 4.032 45.0703 9C45.0703 13.968 41.0383 18 36.0703 18H27.0703V0Z" fill="#FF7262"/>
<path d="M45.0703 27C45.0703 31.968 41.0383 36 36.0703 36C31.1023 36 27.0703 31.968 27.0703 27C27.0703 22.032 31.1023 18 36.0703 18C41.0383 18 45.0703 22.032 45.0703 27Z" fill="#1ABCFE"/>
</svg>
