<svg width="54" height="54" viewBox="0 0 54 54" fill="none" xmlns="http://www.w3.org/2000/svg">
<path fill-rule="evenodd" clip-rule="evenodd" d="M27.0002 1.26562C12.4398 1.26562 0.632812 13.0704 0.632812 27.633C0.632812 39.2828 8.18788 49.1665 18.6645 52.653C19.9822 52.8971 20.466 52.081 20.466 51.3846C20.466 50.7558 20.4415 48.6787 20.4302 46.4755C13.0948 48.0705 11.5469 43.3645 11.5469 43.3645C10.3475 40.3168 8.61927 39.5064 8.61927 39.5064C6.22696 37.8699 8.7996 37.9035 8.7996 37.9035C11.4473 38.0895 12.8415 40.6207 12.8415 40.6207C15.1932 44.6517 19.0098 43.4863 20.5145 42.8126C20.7511 41.1084 21.4345 39.9452 22.1885 39.2868C16.332 38.62 10.1754 36.3591 10.1754 26.2559C10.1754 23.3772 11.2054 21.025 12.8922 19.1785C12.6184 18.5144 11.7159 15.8326 13.1476 12.2007C13.1476 12.2007 15.3618 11.492 20.4005 14.9034C22.5038 14.3192 24.7594 14.0262 27.0002 14.0162C29.241 14.0262 31.4984 14.3192 33.6056 14.9034C38.6382 11.492 40.8493 12.2007 40.8493 12.2007C42.2846 15.8326 41.3816 18.5144 41.1078 19.1785C42.7985 21.025 43.8215 23.3772 43.8215 26.2559C43.8215 36.3832 37.6532 38.613 31.7818 39.2658C32.7275 40.0841 33.5702 41.6887 33.5702 44.1487C33.5702 47.6767 33.5397 50.5161 33.5397 51.3846C33.5397 52.0862 34.0143 52.9084 35.3508 52.6495C45.8217 49.159 53.3672 39.2789 53.3672 27.633C53.3672 13.0704 41.5619 1.26562 27.0002 1.26562ZM10.5083 38.8265C10.4502 38.9575 10.2441 38.9968 10.0563 38.9069C9.8651 38.8209 9.75769 38.6423 9.81969 38.5109C9.87646 38.3759 10.083 38.3384 10.2738 38.4288C10.4655 38.5148 10.5746 38.6951 10.5083 38.8265ZM11.8052 39.9838C11.6795 40.1004 11.4337 40.0463 11.2669 39.862C11.0944 39.6782 11.0621 39.4324 11.1896 39.314C11.3193 39.1975 11.5577 39.252 11.7306 39.4359C11.9031 39.6219 11.9367 39.8659 11.8052 39.9838ZM12.695 41.4645C12.5335 41.5767 12.2693 41.4715 12.106 41.237C11.9445 41.0026 11.9445 40.7214 12.1095 40.6087C12.2732 40.4961 12.5335 40.5974 12.699 40.8301C12.8601 41.0685 12.8601 41.3497 12.695 41.4645ZM14.1998 43.1794C14.0553 43.3388 13.7475 43.296 13.5222 43.0785C13.2916 42.8659 13.2275 42.5642 13.3724 42.4048C13.5187 42.245 13.8283 42.29 14.0553 42.5057C14.2841 42.7179 14.354 43.0218 14.1998 43.1794ZM16.1447 43.7583C16.0809 43.9648 15.7844 44.0587 15.4858 43.971C15.1876 43.8806 14.9924 43.6387 15.0526 43.43C15.1146 43.2221 15.4124 43.1243 15.7133 43.2182C16.011 43.3081 16.2067 43.5483 16.1447 43.7583ZM18.3579 44.0039C18.3654 44.2213 18.1121 44.4016 17.7986 44.4056C17.4834 44.4126 17.2284 44.2366 17.2249 44.0227C17.2249 43.803 17.4724 43.6244 17.7877 43.6192C18.1012 43.6131 18.3579 43.7877 18.3579 44.0039ZM20.5322 43.9205C20.5698 44.1327 20.3519 44.3506 20.0406 44.4087C19.7345 44.4646 19.4511 44.3336 19.4123 44.1231C19.3743 43.9057 19.5961 43.6878 19.9017 43.6315C20.2135 43.5773 20.4925 43.7048 20.5322 43.9205Z" fill="#161614"/>
</svg>
