<svg width="54" height="54" viewBox="0 0 54 54" fill="none" xmlns="http://www.w3.org/2000/svg">
<g clip-path="url(#clip0_203_451)">
<path d="M53.0918 21.5641L53.0162 21.3707L45.6751 2.21582C45.5259 1.84015 45.2618 1.5212 44.9207 1.30448C44.577 1.08755 44.1745 0.982645 43.7687 1.00424C43.3628 1.02584 42.9737 1.17288 42.6549 1.42506C42.3392 1.67824 42.1116 2.02466 42.0044 2.41491L37.0411 17.6047H16.9609L11.9977 2.41491C11.8905 2.02466 11.6629 1.67824 11.3472 1.42506C11.0298 1.17118 10.6409 1.02304 10.2351 1.00141C9.82923 0.97979 9.4268 1.08577 9.08425 1.30448C8.74164 1.52031 8.47651 1.83946 8.32714 2.21582L0.977593 21.3958L0.901881 21.5865C-0.153146 24.3489 -0.282831 27.3792 0.532326 30.2216C1.34748 33.064 3.06342 35.5651 5.42209 37.3484L5.45014 37.368L5.51463 37.4185L16.7114 45.7999L22.2467 49.9922L25.6117 52.541C26.0069 52.8397 26.4889 53.0013 26.9843 53.0013C27.4796 53.0013 27.9615 52.8397 28.3569 52.541L31.7218 49.9922L37.2598 45.7999L48.5212 37.368L48.5519 37.3456C50.9186 35.5639 52.6414 33.0608 53.4603 30.2138C54.2794 27.367 54.15 24.331 53.0918 21.5641Z" fill="#E24329"/>
<path d="M53.0921 21.5641L53.0165 21.3707C49.4362 22.1085 46.0623 23.6259 43.1349 25.8151L27.014 38.0326C32.51 42.1884 37.2939 45.8 37.2939 45.8L48.5551 37.3681L48.586 37.3456C50.9468 35.5596 52.6628 33.0543 53.4757 30.2078C54.2886 27.3612 54.1539 24.3276 53.0921 21.5641Z" fill="#FC6D26"/>
<path d="M16.7201 45.8L22.247 49.9922L25.6119 52.541C26.0072 52.8397 26.489 53.0014 26.9845 53.0014C27.4799 53.0014 27.9619 52.8397 28.3571 52.541L31.722 49.9922L37.2602 45.8C37.2602 45.8 32.4763 42.1884 26.9803 38.0326L16.7201 45.8Z" fill="#FCA326"/>
<path d="M10.8593 25.8263C7.93253 23.6363 4.55833 22.1197 0.977624 21.3846L0.901913 21.5753C-0.155825 24.3391 -0.286936 27.3717 0.52832 30.2165C1.34358 33.0613 3.06106 35.5642 5.42212 37.3484L5.45017 37.368L5.51467 37.4184L16.7114 45.7999L27.0137 38.0325L10.8593 25.8263Z" fill="#FC6D26"/>
</g>
<defs>
<clipPath id="clip0_203_451">
<rect width="54" height="54" fill="white"/>
</clipPath>
</defs>
</svg>
