<svg width="48" height="54" viewBox="0 0 48 54" fill="none" xmlns="http://www.w3.org/2000/svg">
<path fill-rule="evenodd" clip-rule="evenodd" d="M4.49727 48.602L0.164062 0H47.7785L43.4407 48.5944L23.9422 54L4.49727 48.602Z" fill="#E44D26"/>
<path fill-rule="evenodd" clip-rule="evenodd" d="M23.9713 49.8681L39.7271 45.5L43.434 3.97388H23.9713V49.8681Z" fill="#F16529"/>
<path d="M16.0835 21.9997H23.9713V27.9605H10.6321L9.02435 9.93481H23.9713V15.8957H15.5388L16.0835 21.9997Z" fill="#EBEBEB"/>
<path d="M23.9452 37.4876L23.9713 37.4806V43.6824L23.9439 43.69L11.7335 40.3003L10.8984 30.941H16.8822L17.3066 35.695L23.9452 37.4876Z" fill="#EBEBEB"/>
<path d="M23.9507 9.93481H38.8827L38.3489 15.8957H23.9507V9.93481Z" fill="white"/>
<path d="M23.9507 27.9605V21.9997H37.8065L37.6611 23.6003L36.1707 40.3003L23.9507 43.6871V37.4856L30.5989 35.6912L31.2908 27.9605H23.9507Z" fill="white"/>
</svg>
