<svg width="54" height="54" viewBox="0 0 54 54" fill="none" xmlns="http://www.w3.org/2000/svg">
<g clip-path="url(#clip0_203_509)">
<path d="M0 19.5429C0 12.7022 0 9.2819 1.33128 6.66912C2.5023 4.37085 4.37085 2.5023 6.66912 1.33128C9.2819 0 12.7022 0 19.5429 0H34.4571C41.2978 0 44.7181 0 47.3309 1.33128C49.6292 2.5023 51.4977 4.37085 52.6687 6.66912C54 9.2819 54 12.7022 54 19.5429V34.4571C54 41.2978 54 44.7181 52.6687 47.3309C51.4977 49.6292 49.6292 51.4977 47.3309 52.6687C44.7181 54 41.2978 54 34.4571 54H19.5429C12.7022 54 9.2819 54 6.66912 52.6687C4.37085 51.4977 2.5023 49.6292 1.33128 47.3309C0 44.7181 0 41.2978 0 34.4571V19.5429Z" fill="#001E36"/>
<path d="M11.5714 39.5671V15.8209C11.5714 15.6594 11.6389 15.5671 11.7964 15.5671C14.1216 15.5671 16.4457 15.4286 18.7714 15.4286C22.5453 15.4286 26.6316 16.719 28.0639 20.6671C28.4014 21.6363 28.5814 22.6286 28.5814 23.6671C28.5814 25.6517 28.1314 27.2901 27.2314 28.5824C24.7174 32.1924 20.3599 32.1363 16.4539 32.1363V39.544C16.4845 39.7633 16.2976 39.8671 16.1164 39.8671H11.8414C11.6614 39.8671 11.5714 39.7748 11.5714 39.5671ZM16.4764 20.0209V27.7747C18.0252 27.8882 19.6458 27.9005 21.1339 27.4055C22.7768 26.9316 23.6764 25.5095 23.6764 23.8055C23.7221 22.3535 22.9309 20.9603 21.5839 20.4363C20.1138 19.825 18.0634 19.7884 16.4764 20.0209Z" fill="#31A8FF"/>
<path d="M42.615 26.2428C41.9342 25.884 41.2091 25.6216 40.4596 25.4626C39.4964 25.2359 35.6974 24.4422 35.696 26.4286C35.7297 27.5376 37.4901 28.0809 38.2679 28.3977C40.9985 29.3352 44.0885 31.0109 44.0277 34.3795C44.1112 38.573 40.0482 40.2494 36.5654 40.2498C34.7522 40.2686 32.8634 39.9877 31.2041 39.2095C31.0457 39.1256 30.9437 38.9463 30.9505 38.7636V34.751C30.9326 34.5901 31.1053 34.4495 31.2403 34.5653C32.8661 35.5485 34.7932 36.0259 36.674 36.0514C37.5043 36.0514 39.1499 35.9709 39.1374 34.751C39.1374 33.5803 37.1689 33.0421 36.3842 32.7447C35.2468 32.3386 34.1683 31.7762 33.1783 31.0728C31.7948 30.0859 30.9269 28.5037 30.9505 26.7629C30.9424 22.8144 34.6824 21.0421 38.0506 21.0413C39.6252 21.0283 41.3161 21.1449 42.7819 21.7843C42.9927 21.8464 43.0363 22.0684 43.0354 22.2673V26.0199C43.0488 26.2528 42.7901 26.3321 42.615 26.2428Z" fill="#31A8FF"/>
</g>
<defs>
<clipPath id="clip0_203_509">
<rect width="54" height="54" fill="white"/>
</clipPath>
</defs>
</svg>
