<svg width="62" height="46" viewBox="0 0 62 46" fill="none" xmlns="http://www.w3.org/2000/svg">
<path d="M53.0481 26.4256C50.9103 26.435 49.0591 26.9505 47.5131 27.714C46.95 26.5781 46.3677 25.5857 46.2722 24.8414C46.158 23.9728 46.0337 23.4576 46.1675 22.427C46.3012 21.3961 46.9022 19.936 46.8927 19.8312C46.8833 19.7263 46.7591 19.2013 45.5281 19.1917C44.2971 19.1823 43.2379 19.4302 43.1137 19.7547C42.9894 20.0791 42.7511 20.8141 42.6079 21.5775C42.3884 22.6941 40.1456 26.6833 38.8763 28.7636C38.4565 27.9527 38.1035 27.2367 38.027 26.6641C37.9125 25.7955 37.7884 25.2804 37.9221 24.2497C38.0557 23.2188 38.6568 21.7587 38.6472 21.6539C38.6377 21.549 38.5136 21.024 37.2827 21.0144C36.0515 21.005 34.9925 21.2529 34.8682 21.5775C34.7441 21.9019 34.6105 22.6654 34.3624 23.4005C34.1145 24.135 31.1272 30.7771 30.3447 32.5046C29.9437 33.3823 29.6004 34.0886 29.3522 34.5659C29.3142 34.6422 29.2855 34.69 29.2664 34.7282C29.295 34.6806 29.3142 34.6326 29.3142 34.652C29.1042 35.0621 28.9801 35.2912 28.9801 35.2912V35.3007C28.8178 35.606 28.6365 35.8826 28.5507 35.8826C28.4933 35.8826 28.3694 35.0812 28.5794 33.9837C29.0277 31.6742 30.087 28.0863 30.0775 27.962C30.0679 27.8952 30.2778 27.2749 29.3808 26.9408C28.5124 26.6259 28.1974 27.1509 28.1212 27.1509C28.0449 27.1509 27.9875 27.3419 27.9875 27.3419C27.9875 27.3419 28.9515 23.2955 26.1361 23.2955C24.3802 23.2955 21.9373 25.2234 20.7349 26.9697C19.9809 27.3801 18.3489 28.2676 16.6313 29.2123C15.9728 29.575 15.2952 29.947 14.6558 30.3003C14.6082 30.2523 14.5699 30.2046 14.5222 30.157C11.1058 26.5117 4.79769 23.935 5.06504 19.0391C5.1604 17.2545 5.78077 12.569 17.1944 6.88117C26.5468 2.2241 34.0285 3.50295 35.3171 6.34674C37.1682 10.4027 31.3182 17.9514 21.6034 19.0391C17.9006 19.4495 15.9539 18.018 15.4672 17.4837C14.9613 16.9207 14.8849 16.8919 14.6941 16.997C14.379 17.1687 14.5796 17.665 14.6941 17.9608C14.9804 18.7146 16.1732 20.0507 18.206 20.7188C19.9904 21.3009 24.3327 21.6255 29.5813 19.5927C35.479 17.3213 40.0694 10.9941 38.7237 5.69781C37.3496 0.315587 28.4268 -1.45002 19.9811 1.54649C14.9519 3.3311 9.51227 6.13689 5.59948 9.79176C0.951972 14.1436 0.20769 17.9321 0.512893 19.5164C1.60089 25.1372 9.34984 28.8019 12.4514 31.512C12.2987 31.598 12.1555 31.6743 12.022 31.7507C10.4665 32.5235 4.55929 35.6156 3.08003 38.8797C1.41017 42.5824 3.35667 45.2352 4.63553 45.598C8.62455 46.7049 12.7091 44.7104 14.9041 41.437C17.0988 38.1638 16.8317 33.8885 15.8202 31.9416C15.8105 31.913 15.7915 31.8941 15.7821 31.8652C16.1828 31.6268 16.593 31.3881 17.0036 31.1496C17.7955 30.682 18.5686 30.2523 19.2461 29.8804C18.8643 30.9112 18.5876 32.1513 18.4444 33.9457C18.2727 36.0451 19.1412 38.7649 20.2673 39.8338C20.7633 40.3014 21.3646 40.3111 21.7369 40.3111C23.0538 40.3111 23.6454 39.223 24.3039 37.9252C25.1151 36.3407 25.8308 34.4989 25.8308 34.4989C25.8308 34.4989 24.9338 39.4808 27.3863 39.4808C28.2833 39.4808 29.1806 38.326 29.5812 37.7343V37.7437C29.5812 37.7437 29.6004 37.7058 29.6481 37.6295C29.7435 37.4862 29.7911 37.4003 29.7911 37.4003V37.3715C30.1537 36.7512 30.9459 35.3292 32.1386 32.9818C33.6848 29.9469 35.1638 26.1581 35.1638 26.1581C35.1638 26.1581 35.2974 27.0841 35.7558 28.6205C36.0228 29.527 36.5858 30.5195 37.0343 31.4835C36.6719 31.9797 36.4522 32.266 36.4522 32.266C36.4522 32.266 36.4522 32.2755 36.4615 32.285C36.1753 32.667 35.851 33.0774 35.517 33.4782C34.2953 34.9286 32.8448 36.5893 32.6541 37.0664C32.4248 37.6295 32.4822 38.0491 32.9213 38.3738C33.2456 38.622 33.8183 38.66 34.4194 38.6125C35.517 38.5358 36.2899 38.2689 36.6621 38.0968C37.2536 37.8872 37.9409 37.5529 38.5898 37.0854C39.7828 36.2076 40.5082 34.9479 40.4411 33.2874C40.403 32.3712 40.107 31.4549 39.7444 30.5963C39.8494 30.4434 39.9641 30.281 40.069 30.1191C41.9588 27.3607 43.4188 24.3359 43.4188 24.3359C43.4188 24.3359 43.5524 25.2614 44.0103 26.7979C44.2394 27.571 44.6879 28.4203 45.0982 29.2504C43.3231 30.6915 42.2258 32.3618 41.844 33.4589C41.1377 35.4918 41.6913 36.4076 42.7315 36.618C43.1991 36.7134 43.8671 36.4937 44.3635 36.2837C44.9837 36.0738 45.7281 35.7397 46.4247 35.2244C47.6176 34.3467 48.7724 33.1154 48.6962 31.4454C48.6674 30.6914 48.4575 29.9376 48.1808 29.2123C49.6789 28.5826 51.626 28.2387 54.1071 28.5252C59.4227 29.1455 60.4627 32.4664 60.2623 33.8501C60.0622 35.2435 58.9456 36.0071 58.5733 36.2361C58.2009 36.4652 58.0866 36.5511 58.1154 36.7228C58.1629 36.9709 58.3347 36.9615 58.6496 36.904C59.0888 36.8277 61.4362 35.7779 61.541 33.2107C61.694 29.966 58.5736 26.397 53.0481 26.4256ZM12.0793 40.2345C10.3235 42.1527 7.86128 42.878 6.8021 42.2672C5.66642 41.609 6.11492 38.7841 8.28123 36.7417C9.5982 35.5012 11.2969 34.3561 12.423 33.6499C12.6806 33.4973 13.0529 33.2682 13.511 32.9914C13.5874 32.944 13.6255 32.9248 13.6255 32.9248C13.7113 32.8673 13.8068 32.8197 13.9023 32.7623C14.6941 35.6635 13.9307 38.2209 12.0793 40.2345ZM24.9054 31.512C24.2946 33.0102 23.0062 36.8276 22.2239 36.6272C21.5558 36.4553 21.1453 33.5447 22.0903 30.682C22.5673 29.2408 23.5788 27.5232 24.1802 26.8552C25.1439 25.7767 26.2032 25.4331 26.4514 25.8626C26.7853 26.4256 25.2869 30.5769 24.9054 31.512ZM35.4981 36.5702C35.2406 36.7037 35.0019 36.7895 34.8874 36.7227C34.8016 36.675 34.9925 36.4936 34.9925 36.4936C34.9925 36.4936 36.3187 35.0717 36.8438 34.4225C37.1491 34.0409 37.5021 33.5923 37.8839 33.0962C37.8839 33.1437 37.8932 33.1917 37.8932 33.2487C37.8841 34.9572 36.2426 36.1121 35.4981 36.5702ZM43.6673 34.7091C43.4764 34.5755 43.5048 34.127 44.1443 32.7335C44.3925 32.1895 44.9652 31.2735 45.9575 30.3955C46.0721 30.7581 46.1388 31.1015 46.1388 31.426C46.1291 33.5733 44.5928 34.375 43.6673 34.7091Z" fill="#CF649A"/>
</svg>
