<svg width="54" height="54" viewBox="0 0 54 54" fill="none" xmlns="http://www.w3.org/2000/svg">
<path d="M6.94819 49.7592L5.27538 5.18641C5.22014 3.71435 6.34886 2.46679 7.81909 2.3749L45.7314 0.00537934C47.2279 -0.0881532 48.5169 1.04919 48.6104 2.54571C48.614 2.6021 48.6157 2.65858 48.6157 2.71507V51.285C48.6157 52.7845 47.4002 54 45.9007 54C45.8601 54 45.8195 53.9991 45.7789 53.9973L9.53944 52.3696C8.12806 52.3062 7.00118 51.171 6.94819 49.7592Z" fill="#FF4785"/>
<path d="M37.2784 6.63746L37.5374 0.409082L42.7439 0L42.9682 6.42311C42.976 6.64665 42.8011 6.83419 42.5775 6.842C42.4818 6.84534 42.388 6.81465 42.3128 6.75539L40.305 5.17372L37.9278 6.97695C37.7496 7.11213 37.4956 7.07726 37.3604 6.89905C37.3035 6.82403 37.2745 6.73154 37.2784 6.63746ZM30.6198 20.3533C30.6198 21.4096 37.7348 20.9034 38.6899 20.1614C38.6899 12.9684 34.8303 9.18852 27.7627 9.18852C20.695 9.18852 16.7352 13.0272 16.7352 18.7851C16.7352 28.8136 30.2689 29.0055 30.2689 34.4756C30.2689 36.0111 29.517 36.9227 27.8629 36.9227C25.7075 36.9227 24.8554 35.822 24.9557 32.0793C24.9557 31.2674 16.7352 31.0142 16.4845 32.0793C15.8464 41.1491 21.497 43.7652 27.9632 43.7652C34.2288 43.7652 39.141 40.4255 39.141 34.3796C39.141 23.6314 25.4068 23.9193 25.4068 18.5932C25.4068 16.434 27.0108 16.1461 27.9632 16.1461C28.9657 16.1461 30.7702 16.3228 30.6198 20.3533Z" fill="white"/>
</svg>
