<svg width="53" height="53" viewBox="0 0 53 53" fill="none" xmlns="http://www.w3.org/2000/svg">
<path d="M23.85 53V42.0025L15.2375 50.4825L11.5275 46.7725L23.85 34.45V29.15H18.55L6.2275 41.4725L2.5175 37.7625L10.9975 29.15H0V23.85H10.9975L2.5175 15.2375L6.2275 11.5275L18.55 23.85H23.85V18.55L11.5275 6.2275L15.2375 2.5175L23.85 10.9975V0H29.15V10.9975L37.7625 2.5175L41.4725 6.2275L29.15 18.55V23.85H34.45L46.7725 11.5275L50.4825 15.2375L42.0025 23.85H53V29.15H42.0025L50.4825 37.7625L46.7725 41.4725L34.45 29.15H29.15V34.45L41.4725 46.7725L37.7625 50.4825L29.15 42.0025V53H23.85Z" fill="#08724F"/>
</svg>
