<svg width="36" height="53" viewBox="0 0 36 53" fill="none" xmlns="http://www.w3.org/2000/svg">
<path d="M0.5 23.4186V20.9535C0.5 17.9953 1.17708 15.294 2.53125 12.8494C3.88542 10.4048 5.70833 8.40194 8 6.8407L3.3125 2.2186L5.5 0L10.8125 5.23837C11.8958 4.74535 13.0521 4.36531 14.2813 4.09826C15.5104 3.8312 16.75 3.69767 18 3.69767C19.25 3.69767 20.4896 3.8312 21.7188 4.09826C22.9479 4.36531 24.1042 4.74535 25.1875 5.23837L30.5 0L32.6875 2.2186L28 6.8407C30.2917 8.40194 32.1146 10.4048 33.4688 12.8494C34.8229 15.294 35.5 17.9953 35.5 20.9535V23.4186H0.5ZM25.5 18.4884C26.2083 18.4884 26.8021 18.2521 27.2813 17.7797C27.7604 17.3072 28 16.7217 28 16.0233C28 15.3248 27.7604 14.7393 27.2813 14.2669C26.8021 13.7944 26.2083 13.5581 25.5 13.5581C24.7917 13.5581 24.1979 13.7944 23.7188 14.2669C23.2396 14.7393 23 15.3248 23 16.0233C23 16.7217 23.2396 17.3072 23.7188 17.7797C24.1979 18.2521 24.7917 18.4884 25.5 18.4884ZM10.5 18.4884C11.2083 18.4884 11.8021 18.2521 12.2812 17.7797C12.7604 17.3072 13 16.7217 13 16.0233C13 15.3248 12.7604 14.7393 12.2812 14.2669C11.8021 13.7944 11.2083 13.5581 10.5 13.5581C9.79167 13.5581 9.19792 13.7944 8.71875 14.2669C8.23958 14.7393 8 15.3248 8 16.0233C8 16.7217 8.23958 17.3072 8.71875 17.7797C9.19792 18.2521 9.79167 18.4884 10.5 18.4884ZM18 53C13.125 53 8.98958 51.3258 5.59375 47.9773C2.19792 44.6289 0.5 40.5512 0.5 35.7442V25.8837H35.5V35.7442C35.5 40.5512 33.8021 44.6289 30.4063 47.9773C27.0104 51.3258 22.875 53 18 53Z" fill="#08724F"/>
</svg>
