<svg width="28" height="29" viewBox="0 0 28 29" fill="none" xmlns="http://www.w3.org/2000/svg">
<mask id="mask0_30_396" style="mask-type:alpha" maskUnits="userSpaceOnUse" x="0" y="0" width="28" height="29">
<rect y="0.5" width="28" height="28" fill="#D9D9D9"/>
</mask>
<g mask="url(#mask0_30_396)">
<path d="M15.2833 27.3333C13.65 27.3333 12.1188 27.0222 10.6896 26.4C9.26042 25.7778 8.01597 24.9368 6.95625 23.8771C5.89653 22.8174 5.05556 21.5729 4.43333 20.1438C3.81111 18.7146 3.5 17.1833 3.5 15.55C3.5 12.7111 4.40417 10.2076 6.2125 8.03958C8.02083 5.87153 10.325 4.525 13.125 4C12.775 5.925 12.8819 7.80625 13.4458 9.64375C14.0097 11.4813 14.9819 13.0903 16.3625 14.4708C17.7431 15.8514 19.3521 16.8236 21.1896 17.3875C23.0271 17.9514 24.9083 18.0583 26.8333 17.7083C26.3278 20.5083 24.9861 22.8125 22.8083 24.6208C20.6306 26.4292 18.1222 27.3333 15.2833 27.3333ZM15.2833 25C16.9944 25 18.5792 24.5722 20.0375 23.7167C21.4958 22.8611 22.6431 21.6847 23.4792 20.1875C21.8069 20.0319 20.2222 19.609 18.725 18.9188C17.2278 18.2285 15.8861 17.2903 14.7 16.1042C13.5139 14.9181 12.5708 13.5764 11.8708 12.0792C11.1708 10.5819 10.7528 8.99722 10.6167 7.325C9.11944 8.16111 7.94792 9.31319 7.10208 10.7813C6.25625 12.2493 5.83333 13.8389 5.83333 15.55C5.83333 18.175 6.75208 20.4062 8.58958 22.2438C10.4271 24.0813 12.6583 25 15.2833 25Z" fill="#626262"/>
</g>
</svg>
