<svg width="28" height="29" viewBox="0 0 28 29" fill="none" xmlns="http://www.w3.org/2000/svg">
<path d="M14 23.25C14.966 23.25 15.75 24.034 15.75 25V26.75C15.75 27.716 14.966 28.5 14 28.5C13.034 28.5 12.25 27.716 12.25 26.75V25C12.25 24.034 13.034 23.25 14 23.25ZM14 5.75C13.034 5.75 12.25 4.966 12.25 4V2.25C12.25 1.284 13.034 0.5 14 0.5C14.966 0.5 15.75 1.284 15.75 2.25V4C15.75 4.966 14.966 5.75 14 5.75ZM26.25 12.75C27.216 12.75 28 13.534 28 14.5C28 15.466 27.216 16.25 26.25 16.25H24.5C23.534 16.25 22.75 15.466 22.75 14.5C22.75 13.534 23.534 12.75 24.5 12.75H26.25ZM5.25 14.5C5.25 15.466 4.466 16.25 3.5 16.25H1.75C0.784 16.25 0 15.466 0 14.5C0 13.534 0.784 12.75 1.75 12.75H3.5C4.466 12.75 5.25 13.534 5.25 14.5ZM22.6625 20.688L23.8997 21.9253C24.5822 22.6077 24.5822 23.7172 23.8997 24.3997C23.2172 25.0822 22.1077 25.0822 21.4253 24.3997L20.188 23.1625C19.5055 22.48 19.5055 21.3705 20.188 20.688C20.8705 20.0055 21.98 20.0055 22.6625 20.688ZM5.3375 8.312L4.10025 7.07475C3.416 6.3905 3.416 5.28275 4.10025 4.60025C4.7845 3.91775 5.89225 3.916 6.57475 4.60025L7.812 5.8375C8.49625 6.52175 8.49625 7.6295 7.812 8.312C7.12775 8.9945 6.02 8.99625 5.3375 8.312ZM22.6625 8.312C21.98 8.99625 20.8705 8.99625 20.188 8.312C19.5055 7.62775 19.5055 6.52 20.188 5.8375L21.4253 4.60025C22.1077 3.916 23.2172 3.916 23.8997 4.60025C24.5822 5.2845 24.5822 6.39225 23.8997 7.07475L22.6625 8.312ZM5.3375 20.688C6.02 20.0055 7.1295 20.0055 7.812 20.688C8.4945 21.3705 8.49625 22.48 7.812 23.1625L6.57475 24.3997C5.8905 25.0822 4.78275 25.0822 4.10025 24.3997C3.41775 23.7172 3.416 22.6077 4.10025 21.9253L5.3375 20.688Z" fill="#626262"/>
<path d="M14 7.5C10.1342 7.5 7 10.6342 7 14.5C7 18.3658 10.1342 21.5 14 21.5C17.8658 21.5 21 18.3658 21 14.5C21 10.6342 17.8658 7.5 14 7.5ZM14 18.875C11.5833 18.875 9.625 16.9167 9.625 14.5C9.625 12.0833 11.5833 10.125 14 10.125C16.4167 10.125 18.375 12.0833 18.375 14.5C18.375 16.9167 16.4167 18.875 14 18.875Z" fill="#626262"/>
</svg>
