<svg width="26" height="25" viewBox="0 0 26 25" fill="none" xmlns="http://www.w3.org/2000/svg">
<path d="M9.3847 7.88477H14.493V10.5026H14.5669C15.2776 9.22692 17.0167 7.88477 19.6105 7.88477C25.0032 7.88477 26.0001 11.2411 26.0001 15.6072V24.5001H20.6739V16.6171C20.6739 14.7377 20.6352 12.3174 17.9047 12.3174C15.1318 12.3174 14.7072 14.3648 14.7072 16.4805V24.5001H9.3847V7.88477Z" fill="#08724F"/>
<path d="M0.153931 7.88477H5.69239V24.5001H0.153931V7.88477Z" fill="#08724F"/>
<path d="M5.69239 3.26923C5.69239 4.79785 4.45178 6.03846 2.92316 6.03846C1.39455 6.03846 0.153931 4.79785 0.153931 3.26923C0.153931 1.74062 1.39455 0.5 2.92316 0.5C4.45178 0.5 5.69239 1.74062 5.69239 3.26923Z" fill="#08724F"/>
</svg>
