<svg width="33" height="32" viewBox="0 0 33 32" fill="none" xmlns="http://www.w3.org/2000/svg">
<path d="M25.5003 13.0122C26.4997 12.0129 27.2992 11.4133 27.8988 10.8136C31.0967 7.61569 34.2947 2.61889 32.296 0.620173C30.2972 -1.37854 25.5003 1.8194 22.3024 5.01735C21.7028 5.61697 21.1032 6.41646 20.1038 7.41582L6.1128 1.01992C4.7137 0.420301 3.11472 0.620173 2.11537 1.61953L0.916138 2.61889L14.1077 14.0116C11.5093 17.2095 8.71113 20.2076 7.31203 22.0064L5.11344 20.8072C4.11408 20.2076 2.71498 20.2076 1.9155 21.2069L1.31588 21.8065L6.91228 26.0038L10.9097 31.6003L11.5093 31.0006C12.3088 30.2012 12.5087 28.802 11.9091 27.8027L10.9097 25.6041C12.7086 24.205 15.7066 21.4068 18.9046 18.8085L30.2972 32L31.2966 31.0006C32.296 30.0013 32.4958 28.4023 31.8962 27.0032L25.5003 13.0122Z" fill="#08724F"/>
</svg>
