<svg width="32" height="32" viewBox="0 0 32 32" fill="none" xmlns="http://www.w3.org/2000/svg">
<path d="M26.1456 17.9375V21.8125C26.1456 21.8125 24.5956 25.1062 18.3956 25.4937V12.125H22.6581C23.0456 12.7063 23.6268 13.0938 24.2081 13.0938C25.3706 13.0938 26.1456 12.3188 26.1456 11.1562C26.1456 9.99375 25.3706 9.21875 24.2081 9.21875C23.4331 9.21875 22.8518 9.60625 22.6581 10.1875H18.3956V7.66875C19.5581 7.0875 20.3331 5.73125 20.3331 4.375C20.3331 2.24375 18.5893 0.5 16.4581 0.5C14.3268 0.5 12.5831 2.24375 12.5831 4.375C12.5831 5.73125 13.3581 7.0875 14.5206 7.66875V10.1875H10.2581C10.0643 9.60625 9.48307 9.21875 8.70807 9.21875C7.54557 9.21875 6.77057 9.99375 6.77057 11.1562C6.77057 12.3188 7.54557 13.0938 8.70807 13.0938C9.48307 13.0938 10.0643 12.7063 10.2581 12.125H14.5206V25.6875C8.12682 25.1063 6.77057 21.8125 6.77057 21.8125V17.9375H0.958069C0.958069 17.9375 6.38307 31.5 16.4581 31.5C26.1456 31.5 31.9581 17.9375 31.9581 17.9375H26.1456ZM16.4581 2.4375C17.6206 2.4375 18.3956 3.2125 18.3956 4.375C18.3956 5.5375 17.6206 6.3125 16.4581 6.3125C15.2956 6.3125 14.5206 5.5375 14.5206 4.375C14.5206 3.2125 15.2956 2.4375 16.4581 2.4375Z" fill="#08724F"/>
</svg>
