<svg width="31" height="25" viewBox="0 0 31 25" fill="none" xmlns="http://www.w3.org/2000/svg">
<path d="M30.1539 3.33732C29.0685 3.82282 27.8981 4.14587 26.676 4.28986C27.9276 3.54038 28.8857 2.35155 29.3417 0.937505C28.1713 1.62976 26.8717 2.13741 25.4946 2.40878C24.387 1.23102 22.8123 0.5 21.0697 0.5C17.7229 0.5 15.0129 3.21179 15.0129 6.55677C15.0129 7.02934 15.0646 7.49085 15.168 7.93574C10.1321 7.68099 5.66658 5.27009 2.67789 1.60207C2.15916 2.49554 1.85826 3.54038 1.85826 4.64799C1.85826 6.74875 2.92525 8.60584 4.55159 9.68945C3.55843 9.65991 2.62435 9.38301 1.80472 8.93443V9.01011C1.80472 11.9471 3.89256 14.3986 6.66712 14.9524C6.15946 15.0909 5.62227 15.1666 5.06847 15.1666C4.67712 15.1666 4.30053 15.126 3.92579 15.0576C4.69927 17.463 6.93663 19.2167 9.58566 19.2684C7.5089 20.8947 4.90048 21.8639 2.05762 21.8639C1.56659 21.8639 1.08847 21.8344 0.610352 21.7771C3.29815 23.5013 6.48252 24.5 9.90318 24.5C21.0476 24.5 27.1468 15.2644 27.1468 7.2564C27.1468 6.99058 27.1412 6.73214 27.1302 6.47185C28.3135 5.62453 29.3398 4.55569 30.1521 3.33917L30.1539 3.33732Z" fill="#08724F"/>
</svg>
